<svg xmlns="http://www.w3.org/2000/svg" xmlns:xlink="http://www.w3.org/1999/xlink" xmlns:serif="http://www.serif.com/" width="100%" height="100%" viewBox="0 0 320 30" version="1.1" xml:space="preserve" style="fill-rule:evenodd;clip-rule:evenodd;stroke-linejoin:round;stroke-miterlimit:2;">
    <g id="Layer-2" serif:id="Layer 2">
        <g transform="matrix(1,0,0,1,5.3989,20.8098)">
            <path d="M0,-11.058L-2.232,-11.058L-2.232,-5.659L0,-5.659C2.051,-5.659 2.777,-6.879 2.777,-8.359C2.777,-9.812 2.051,-11.058 0,-11.058M0.519,-3.401L-2.232,-3.401L-2.232,2.258L-5.399,2.258L-5.399,-13.316L0.519,-13.316C4.257,-13.316 5.918,-11.032 5.918,-8.359C5.918,-5.659 4.257,-3.401 0.519,-3.401" style="fill:#fff;fill-rule:nonzero;"/>
        </g>
        <g transform="matrix(1,0,0,1,24.6055,19.2001)">
            <path d="M0,-7.839L-2.31,-2.18L2.285,-2.18L0,-7.839ZM4.725,3.868L3.141,0.026L-3.167,0.026L-4.75,3.868L-7.812,3.868L-1.193,-11.707L1.272,-11.707L7.891,3.868L4.725,3.868Z" style="fill:#fff;fill-rule:nonzero;"/>
        </g>
        <g transform="matrix(1,0,0,1,45.2656,7.1302)">
            <path d="M0,16.249C-2.595,16.249 -4.464,15.236 -5.529,14.302L-4.802,11.81C-3.764,12.797 -2.128,13.912 0,13.912C1.558,13.912 2.751,13.135 2.751,11.759C2.751,10.46 2.025,9.786 -0.519,9.163C-3.79,8.358 -5.087,6.619 -5.087,4.387C-5.087,1.842 -3.063,0 0.286,0C2.207,0 3.92,0.727 4.958,1.532L4.283,3.737C3.193,3.011 1.635,2.388 0.26,2.388C-1.271,2.388 -2.18,3.063 -2.18,4.179C-2.18,5.088 -1.635,5.788 0.494,6.308C4.127,7.216 5.685,8.747 5.685,11.447C5.685,14.796 2.934,16.249 0,16.249" style="fill:#fff;fill-rule:nonzero;"/>
        </g>
        <g transform="matrix(1,0,0,1,66.2642,20.6013)">
            <path d="M0,-10.642L0,2.466L-3.167,2.466L-3.167,-10.642L-8.436,-10.642L-8.436,-13.108L5.269,-13.108L5.269,-10.642L0,-10.642Z" style="fill:#fff;fill-rule:nonzero;"/>
        </g>
        <g transform="matrix(1,0,0,1,0,0.3312)">
            <rect x="79.76" y="7.162" width="3.167" height="15.574" style="fill:#fff;"/>
        </g>
        <g transform="matrix(1,0,0,1,106.598,7.4937)">
            <path d="M0,15.574L0,6.022C0,5.658 0.078,4.646 0.104,4.543L-0.467,6.022L-4.646,15.574L-6.593,15.574L-10.772,6.022C-10.928,5.658 -11.265,4.699 -11.317,4.543C-11.317,4.62 -11.239,5.658 -11.239,6.022L-11.239,15.574L-14.017,15.574L-14.017,0L-10.642,0L-5.502,11.395L-0.389,0L2.881,0L2.881,15.574L0,15.574Z" style="fill:#fff;fill-rule:nonzero;"/>
        </g>
        <g transform="matrix(1,0,0,1,119.16,7.4937)">
            <path d="M0,15.574L0,0L10.149,0L10.149,2.466L3.167,2.466L3.167,6.126L8.851,6.126L8.851,8.592L3.167,8.592L3.167,13.107L10.149,13.107L10.149,15.574L0,15.574Z" style="fill:#fff;fill-rule:nonzero;"/>
        </g>
        <g transform="matrix(1,0,0,1,192.325,20.0275)">
            <path d="M0,-11.058L-2.232,-11.058L-2.232,-5.659L0,-5.659C2.051,-5.659 2.777,-6.879 2.777,-8.359C2.777,-9.812 2.051,-11.058 0,-11.058M0.519,-3.401L-2.232,-3.401L-2.232,2.258L-5.399,2.258L-5.399,-13.316L0.519,-13.316C4.257,-13.316 5.918,-11.032 5.918,-8.359C5.918,-5.659 4.257,-3.401 0.519,-3.401" style="fill:#fff;fill-rule:nonzero;"/>
        </g>
        <g transform="matrix(1,0,0,1,0,-1.2328)">
            <rect x="207.585" y="7.944" width="3.167" height="15.574" style="fill:#fff;"/>
        </g>
        <g transform="matrix(1,0,0,1,232.425,6.7115)">
            <path d="M0,15.574L-8.15,5.295L-8.15,15.574L-10.979,15.574L-10.979,0L-8.773,0L-0.623,10.279L-0.623,0L2.206,0L2.206,15.574L0,15.574Z" style="fill:#fff;fill-rule:nonzero;"/>
        </g>
        <g transform="matrix(1,0,0,1,251.113,13.8232)">
            <path d="M0,1.35L-2.596,1.35L-2.596,6.255L0,6.255C1.973,6.255 2.751,5.192 2.751,3.79C2.751,2.389 1.973,1.35 0,1.35M-2.596,-0.856L-0.234,-0.856C1.35,-0.856 1.998,-1.739 1.998,-2.88C1.998,-4.023 1.35,-4.905 -0.234,-4.905L-2.596,-4.905L-2.596,-0.856ZM0.545,8.462L-5.763,8.462L-5.763,-7.112L0.285,-7.112C3.634,-7.112 4.983,-5.269 4.983,-3.037C4.983,-1.843 4.205,-0.597 3.322,0.026C4.854,0.702 5.814,2.259 5.814,3.894C5.814,6.412 4.282,8.462 0.545,8.462" style="fill:#fff;fill-rule:nonzero;"/>
        </g>
        <g transform="matrix(1,0,0,1,273.019,18.4179)">
            <path d="M0,-7.839L-2.311,-2.18L2.284,-2.18L0,-7.839ZM4.724,3.868L3.141,0.026L-3.167,0.026L-4.75,3.868L-7.813,3.868L-1.194,-11.707L1.271,-11.707L7.891,3.868L4.724,3.868Z" style="fill:#fff;fill-rule:nonzero;"/>
        </g>
        <g transform="matrix(1,0,0,1,290.123,6.7115)">
            <path d="M0,15.574L0,0L3.167,0L3.167,13.108L10.149,13.108L10.149,15.574L0,15.574Z" style="fill:#fff;fill-rule:nonzero;"/>
        </g>
        <g transform="matrix(1,0,0,1,309.563,6.7115)">
            <path d="M0,15.574L0,0L3.167,0L3.167,13.108L10.149,13.108L10.149,15.574L0,15.574Z" style="fill:#fff;fill-rule:nonzero;"/>
        </g>
        <g transform="matrix(1,0,0,1,162.295,11.2478)">
            <path d="M0,7.733C-1.033,8.765 -2.406,9.334 -3.866,9.334C-5.327,9.334 -6.699,8.765 -7.732,7.733C-9.864,5.601 -9.864,2.133 -7.732,0.001C-6.699,-1.032 -5.327,-1.6 -3.866,-1.6C-2.406,-1.6 -1.033,-1.032 0,0.001C2.131,2.133 2.131,5.601 0,7.733M3.551,5.901C6.081,6.278 8.622,6.603 11.19,6.783C8.74,5.991 6.263,5.344 3.773,4.749C3.325,4.637 2.874,4.54 2.423,4.441C2.43,4.365 2.44,4.29 2.444,4.214C2.893,4.202 3.341,4.191 3.79,4.167C5.629,4.087 7.213,3.99 8.666,3.867C7.213,3.744 5.628,3.647 3.787,3.567C3.34,3.543 2.893,3.532 2.444,3.519C2.442,3.488 2.438,3.457 2.436,3.426C2.888,3.337 3.341,3.25 3.791,3.147C6.291,2.605 8.782,2.009 11.249,1.267C8.676,1.39 6.129,1.662 3.592,1.986C3.133,2.04 2.676,2.109 2.22,2.176C2.2,2.105 2.179,2.034 2.156,1.962C2.572,1.792 2.989,1.623 3.401,1.44C5.099,0.713 6.552,0.059 7.875,-0.575C6.465,-0.175 4.941,0.297 3.185,0.876C2.761,1.01 2.341,1.158 1.921,1.304C1.855,1.157 1.771,1.018 1.695,0.875C2.071,0.607 2.449,0.342 2.817,0.062C4.874,-1.46 6.9,-3.027 8.843,-4.718C6.549,-3.547 4.339,-2.252 2.159,-0.913C1.762,-0.675 1.373,-0.424 0.983,-0.174C0.936,-0.231 0.892,-0.291 0.842,-0.347C1.15,-0.673 1.461,-0.998 1.761,-1.333C3.011,-2.696 4.066,-3.89 5.01,-5.009C3.89,-4.065 2.696,-3.01 1.331,-1.758C0.998,-1.459 0.673,-1.15 0.348,-0.841C0.324,-0.862 0.3,-0.879 0.277,-0.899C0.534,-1.283 0.793,-1.665 1.039,-2.057C2.424,-4.208 3.765,-6.391 4.982,-8.66C3.252,-6.753 1.643,-4.76 0.077,-2.736C-0.209,-2.374 -0.482,-2.003 -0.757,-1.633C-0.822,-1.67 -0.889,-1.703 -0.955,-1.737C-0.781,-2.152 -0.605,-2.567 -0.443,-2.988C0.243,-4.705 0.809,-6.194 1.295,-7.577C0.58,-6.296 -0.163,-4.885 -0.995,-3.233C-1.199,-2.841 -1.39,-2.442 -1.583,-2.043C-1.735,-2.102 -1.894,-2.135 -2.049,-2.182C-1.973,-2.637 -1.893,-3.092 -1.83,-3.55C-1.453,-6.08 -1.127,-8.621 -0.95,-11.19C-1.744,-8.74 -2.391,-6.262 -2.986,-3.773C-3.099,-3.325 -3.195,-2.873 -3.294,-2.422C-3.368,-2.429 -3.442,-2.439 -3.517,-2.444C-3.529,-2.892 -3.54,-3.34 -3.564,-3.789C-3.644,-5.636 -3.742,-7.226 -3.866,-8.686C-3.991,-7.226 -4.089,-5.635 -4.168,-3.786C-4.193,-3.339 -4.204,-2.892 -4.216,-2.444C-4.246,-2.442 -4.276,-2.437 -4.307,-2.435C-4.396,-2.887 -4.483,-3.34 -4.586,-3.79C-5.128,-6.29 -5.724,-8.782 -6.466,-11.248C-6.342,-8.675 -6.071,-6.128 -5.747,-3.591C-5.693,-3.132 -5.624,-2.676 -5.557,-2.219C-5.628,-2.199 -5.7,-2.178 -5.771,-2.156C-5.941,-2.572 -6.11,-2.988 -6.292,-3.401C-7.021,-5.099 -7.674,-6.552 -8.308,-7.873C-7.908,-6.464 -7.436,-4.941 -6.857,-3.184C-6.723,-2.76 -6.575,-2.341 -6.429,-1.92C-6.576,-1.855 -6.715,-1.771 -6.857,-1.695C-7.126,-2.071 -7.391,-2.449 -7.671,-2.817C-9.193,-4.873 -10.76,-6.9 -12.451,-8.842C-11.28,-6.548 -9.985,-4.338 -8.646,-2.158C-8.408,-1.761 -8.157,-1.372 -7.907,-0.982C-7.964,-0.934 -8.024,-0.892 -8.08,-0.841C-8.406,-1.15 -8.731,-1.46 -9.066,-1.76C-10.428,-3.01 -11.622,-4.065 -12.742,-5.009C-11.798,-3.889 -10.742,-2.694 -9.491,-1.33C-9.192,-0.997 -8.882,-0.672 -8.574,-0.347C-8.595,-0.324 -8.612,-0.299 -8.632,-0.276C-9.016,-0.533 -9.398,-0.793 -9.79,-1.038C-11.941,-2.423 -14.124,-3.764 -16.393,-4.982C-14.486,-3.251 -12.493,-1.642 -10.469,-0.077C-10.107,0.21 -9.736,0.483 -9.366,0.758C-9.403,0.823 -9.436,0.89 -9.47,0.956C-9.885,0.782 -10.3,0.607 -10.721,0.443C-12.437,-0.243 -13.927,-0.808 -15.309,-1.294C-14.029,-0.58 -12.618,0.164 -10.966,0.996C-10.574,1.199 -10.175,1.39 -9.776,1.584C-9.835,1.736 -9.868,1.894 -9.915,2.049C-10.37,1.973 -10.825,1.894 -11.283,1.831C-13.813,1.453 -16.354,1.128 -18.923,0.95C-16.473,1.745 -13.995,2.392 -11.506,2.986C-11.058,3.099 -10.606,3.196 -10.155,3.295C-10.162,3.369 -10.172,3.443 -10.177,3.517C-10.625,3.529 -11.073,3.54 -11.522,3.565C-13.369,3.645 -14.96,3.742 -16.419,3.867C-14.958,3.992 -13.367,4.089 -11.519,4.17C-11.072,4.194 -10.624,4.205 -10.177,4.217C-10.175,4.248 -10.17,4.279 -10.167,4.31C-10.62,4.4 -11.073,4.486 -11.523,4.589C-14.023,5.131 -16.515,5.726 -18.981,6.467C-16.409,6.341 -13.862,6.069 -11.324,5.745C-10.865,5.691 -10.409,5.623 -9.953,5.555C-9.933,5.629 -9.911,5.701 -9.888,5.774C-10.304,5.944 -10.72,6.113 -11.133,6.296C-12.825,7.021 -14.273,7.672 -15.589,8.301C-14.187,7.903 -12.669,7.432 -10.917,6.855C-10.494,6.721 -10.075,6.574 -9.654,6.427C-9.589,6.576 -9.504,6.716 -9.427,6.86C-9.803,7.129 -10.18,7.394 -10.549,7.673C-12.605,9.196 -14.632,10.762 -16.575,12.452C-14.282,11.279 -12.073,9.984 -9.893,8.645C-9.495,8.407 -9.106,8.156 -8.717,7.906C-8.668,7.964 -8.624,8.025 -8.573,8.083C-8.881,8.409 -9.191,8.733 -9.492,9.069C-10.736,10.425 -11.788,11.614 -12.729,12.73C-11.614,11.789 -10.424,10.736 -9.065,9.49C-8.732,9.191 -8.407,8.881 -8.082,8.574C-8.058,8.595 -8.032,8.613 -8.007,8.634C-8.264,9.018 -8.523,9.4 -8.77,9.792C-10.154,11.944 -11.495,14.126 -12.715,16.393C-10.985,14.486 -9.377,12.492 -7.812,10.468C-7.525,10.106 -7.252,9.735 -6.977,9.366C-6.911,9.403 -6.843,9.437 -6.775,9.471C-6.949,9.886 -7.124,10.301 -7.287,10.722C-7.971,12.432 -8.534,13.918 -9.019,15.293C-8.31,14.019 -7.569,12.613 -6.739,10.966C-6.536,10.574 -6.344,10.175 -6.151,9.777C-5.998,9.836 -5.838,9.869 -5.681,9.916C-5.757,10.371 -5.837,10.826 -5.9,11.284C-6.277,13.814 -6.603,16.355 -6.783,18.923C-5.99,16.473 -5.344,13.995 -4.749,11.506C-4.636,11.058 -4.54,10.607 -4.441,10.156C-4.365,10.163 -4.29,10.173 -4.213,10.177C-4.201,10.626 -4.19,11.074 -4.166,11.522C-4.086,13.362 -3.989,14.947 -3.866,16.4C-3.743,14.947 -3.646,13.361 -3.566,11.519C-3.542,11.073 -3.531,10.625 -3.519,10.177C-3.487,10.175 -3.455,10.171 -3.423,10.169C-3.333,10.621 -3.247,11.074 -3.144,11.523C-2.601,14.024 -2.007,16.515 -1.266,18.981C-1.392,16.41 -1.664,13.863 -1.988,11.325C-2.042,10.866 -2.111,10.41 -2.178,9.954C-2.104,9.933 -2.032,9.912 -1.959,9.888C-1.789,10.304 -1.62,10.721 -1.437,11.133C-0.711,12.827 -0.06,14.275 0.569,15.589C0.17,14.186 -0.301,12.67 -0.878,10.918C-1.012,10.495 -1.16,10.075 -1.305,9.655C-1.157,9.589 -1.017,9.504 -0.873,9.427C-0.604,9.803 -0.339,10.181 -0.06,10.549C1.463,12.605 3.029,14.632 4.719,16.576C3.546,14.283 2.251,12.074 0.912,9.893C0.674,9.496 0.423,9.107 0.173,8.717C0.231,8.669 0.292,8.625 0.35,8.574C0.676,8.882 1,9.192 1.335,9.493C2.693,10.738 3.882,11.79 4.996,12.73C4.056,11.614 3.003,10.424 1.758,9.066C1.458,8.733 1.149,8.408 0.841,8.083C0.862,8.058 0.88,8.033 0.901,8.008C1.285,8.265 1.667,8.524 2.059,8.77C4.211,10.154 6.393,11.496 8.66,12.715C6.753,10.986 4.759,9.378 2.735,7.812C2.373,7.526 2.002,7.253 1.633,6.978C1.67,6.912 1.704,6.843 1.738,6.776C2.154,6.95 2.568,7.125 2.989,7.288C4.699,7.971 6.184,8.535 7.56,9.02C6.284,8.309 4.879,7.57 3.233,6.74C2.841,6.537 2.441,6.345 2.043,6.152C2.103,5.999 2.136,5.838 2.183,5.682C2.638,5.758 3.093,5.837 3.551,5.901" style="fill:#fff;fill-rule:nonzero;"/>
        </g>
        <g transform="matrix(1,0,0,1,158.429,21.1484)">
            <path d="M0,-12.068C-1.612,-12.068 -3.127,-11.44 -4.267,-10.3C-6.619,-7.948 -6.619,-4.12 -4.267,-1.767C-3.127,-0.628 -1.612,0 0,0C1.612,0 3.127,-0.628 4.267,-1.767C5.405,-2.905 6.031,-4.421 6.031,-6.034C6.031,-7.647 5.405,-9.162 4.267,-10.3C3.127,-11.44 1.612,-12.068 0,-12.068M0,-11.501C1.46,-11.501 2.833,-10.932 3.866,-9.9C5.997,-7.768 5.997,-4.299 3.866,-2.168C2.833,-1.135 1.46,-0.567 0,-0.567C-1.46,-0.567 -2.833,-1.135 -3.866,-2.168C-5.998,-4.299 -5.998,-7.768 -3.866,-9.9C-2.833,-10.932 -1.46,-11.501 0,-11.501" style="fill:rgb(35,31,32);fill-rule:nonzero;"/>
        </g>
        <g transform="matrix(1,0,0,1,158.429,15.8119)">
            <path d="M0,2.83C-2.48,2.83 -4.512,0.99 -4.853,-1.396C-4.886,-1.166 -4.924,-0.937 -4.924,-0.697C-4.924,2.022 -2.719,4.226 0,4.226C2.719,4.226 4.924,2.022 4.924,-0.697C4.924,-0.937 4.887,-1.166 4.854,-1.396C4.512,0.99 2.48,2.83 0,2.83" style="fill:rgb(35,31,32);fill-rule:nonzero;"/>
        </g>
        <g transform="matrix(1,0,0,1,4.1504,15.8272)">
            <path d="M0,-1.093L1.816,-1.093C3.383,-1.093 4.177,-1.861 4.177,-3.376C4.177,-4.418 3.768,-5.659 1.816,-5.659L0,-5.659L0,-1.093ZM1.816,-0.26L-0.416,-0.26C-0.646,-0.26 -0.833,-0.447 -0.833,-0.676L-0.833,-6.075C-0.833,-6.305 -0.646,-6.492 -0.416,-6.492L1.816,-6.492C3.815,-6.492 5.01,-5.327 5.01,-3.376C5.01,-1.396 3.846,-0.26 1.816,-0.26M-3.167,6.824L-0.833,6.824L-0.833,1.581C-0.833,1.352 -0.646,1.165 -0.416,1.165L2.335,1.165C5.455,1.165 7.318,-0.532 7.318,-3.376C7.318,-6.22 5.455,-7.918 2.335,-7.918L-3.167,-7.918L-3.167,6.824ZM-0.416,7.657L-3.583,7.657C-3.813,7.657 -3.999,7.47 -3.999,7.24L-3.999,-8.334C-3.999,-8.564 -3.813,-8.75 -3.583,-8.75L2.335,-8.75C6.623,-8.75 8.15,-5.974 8.15,-3.376C8.15,-0.779 6.623,1.997 2.335,1.997L0,1.997L0,7.24C0,7.47 -0.187,7.657 -0.416,7.657" style="fill:rgb(34,31,31);fill-rule:nonzero;"/>
        </g>
        <g transform="matrix(1,0,0,1,23.4824,13.9568)">
            <path d="M0,2.647L3.358,2.647L1.688,-1.489L0,2.647ZM3.975,3.479L-0.62,3.479C-0.758,3.479 -0.887,3.411 -0.965,3.295C-1.042,3.18 -1.058,3.035 -1.005,2.906L1.305,-2.753C1.369,-2.91 1.521,-3.012 1.69,-3.012L1.691,-3.012C1.86,-3.011 2.013,-2.909 2.077,-2.751L4.361,2.908C4.413,3.036 4.397,3.181 4.32,3.296C4.243,3.411 4.113,3.479 3.975,3.479M6.694,8.694L8.953,8.694L2.688,-6.047L0.772,-6.047L-5.493,8.694L-3.338,8.694L-1.861,5.11C-1.796,4.955 -1.645,4.853 -1.476,4.853L4.832,4.853C5,4.853 5.152,4.955 5.216,5.11L6.694,8.694ZM9.582,9.527L6.415,9.527C6.246,9.527 6.095,9.425 6.03,9.269L4.553,5.685L-1.197,5.685L-2.675,9.269C-2.739,9.425 -2.891,9.527 -3.06,9.527L-6.122,9.527C-6.262,9.527 -6.392,9.457 -6.469,9.34C-6.546,9.223 -6.56,9.076 -6.505,8.948L0.114,-6.626C0.179,-6.78 0.33,-6.88 0.497,-6.88L2.963,-6.88C3.13,-6.88 3.281,-6.78 3.346,-6.626L9.965,8.948C10.02,9.076 10.006,9.223 9.929,9.34C9.852,9.457 9.721,9.527 9.582,9.527" style="fill:rgb(34,31,31);fill-rule:nonzero;"/>
        </g>
        <g transform="matrix(1,0,0,1,40.7798,9.2214)">
            <path d="M0,12.067C0.859,12.759 2.524,13.741 5.054,13.741C7.601,13.741 10.322,12.589 10.322,9.356C10.322,6.859 8.91,5.486 5.446,4.62C3.352,4.109 2.457,3.352 2.457,2.088C2.457,0.726 3.551,-0.12 5.313,-0.12C6.658,-0.12 8.071,0.422 9.096,1.009L9.527,-0.398C8.593,-1.043 7.072,-1.675 5.339,-1.675C2.328,-1.675 0.383,-0.117 0.383,2.296C0.383,4.533 1.773,5.963 4.634,6.668C6.906,7.224 8.221,7.893 8.221,9.668C8.221,11.205 6.948,12.238 5.054,12.238C3.104,12.238 1.544,11.355 0.467,10.465L0,12.067ZM5.054,14.574C2.037,14.574 0.123,13.29 -0.75,12.524C-0.872,12.417 -0.921,12.25 -0.875,12.094L-0.148,9.602C-0.107,9.463 0.003,9.354 0.143,9.317C0.284,9.28 0.433,9.317 0.538,9.417C1.493,10.324 3.051,11.405 5.054,11.405C6.13,11.405 7.389,10.95 7.389,9.668C7.389,8.672 6.947,8.09 4.435,7.476C1.193,6.678 -0.45,4.936 -0.45,2.296C-0.45,-0.577 1.876,-2.507 5.339,-2.507C7.117,-2.507 8.959,-1.902 10.267,-0.888C10.403,-0.783 10.46,-0.603 10.409,-0.437L9.734,1.768C9.696,1.894 9.601,1.994 9.477,2.039C9.353,2.082 9.215,2.066 9.105,1.993C8.177,1.374 6.693,0.713 5.313,0.713C4.705,0.713 3.29,0.847 3.29,2.088C3.29,2.489 3.29,3.237 5.646,3.812C9.457,4.765 11.155,6.475 11.155,9.356C11.155,13.208 7.868,14.574 5.054,14.574" style="fill:rgb(34,31,31);fill-rule:nonzero;"/>
        </g>
        <g transform="matrix(1,0,0,1,64.0806,7.9097)">
            <path d="M0,14.741L2.334,14.741L2.334,2.05C2.334,1.82 2.521,1.633 2.751,1.633L7.604,1.633L7.604,0L-5.269,0L-5.269,1.633L-0.416,1.633C-0.187,1.633 0,1.82 0,2.05L0,14.741ZM2.751,15.574L-0.416,15.574C-0.646,15.574 -0.833,15.387 -0.833,15.158L-0.833,2.466L-5.685,2.466C-5.915,2.466 -6.102,2.28 -6.102,2.05L-6.102,-0.417C-6.102,-0.646 -5.915,-0.833 -5.685,-0.833L8.02,-0.833C8.25,-0.833 8.436,-0.646 8.436,-0.417L8.436,2.05C8.436,2.28 8.25,2.466 8.02,2.466L3.167,2.466L3.167,15.158C3.167,15.387 2.98,15.574 2.751,15.574" style="fill:rgb(34,31,31);fill-rule:nonzero;"/>
        </g>
        <g transform="matrix(1,0,0,1,0,0.3322)">
            <path d="M80.744,22.318L83.077,22.318L83.077,7.577L80.744,7.577L80.744,22.318ZM83.494,23.152L80.328,23.152C80.098,23.152 79.911,22.965 79.911,22.735L79.911,7.161C79.911,6.931 80.098,6.745 80.328,6.745L83.494,6.745C83.724,6.745 83.911,6.931 83.911,7.161L83.911,22.735C83.911,22.965 83.724,23.152 83.494,23.152" style="fill:rgb(34,31,31);fill-rule:nonzero;"/>
        </g>
        <g transform="matrix(1,0,0,1,107.582,7.9097)">
            <path d="M0,14.741L2.048,14.741L2.048,0L-0.536,0L-5.539,11.149C-5.606,11.299 -5.754,11.395 -5.918,11.395L-5.919,11.395C-6.083,11.395 -6.231,11.3 -6.298,11.15L-11.328,0L-14.016,0L-14.016,14.741L-12.072,14.741L-12.072,5.606C-12.072,5.363 -12.107,4.812 -12.13,4.464C-12.142,4.285 -12.15,4.153 -12.15,4.126C-12.15,3.922 -12.001,3.748 -11.8,3.716C-11.596,3.682 -11.403,3.802 -11.338,3.995C-11.289,4.144 -10.954,5.095 -10.806,5.442L-6.737,14.741L-5.335,14.741L-1.265,5.439L-0.701,3.976C-0.622,3.771 -0.396,3.662 -0.187,3.729C0.023,3.796 0.145,4.014 0.091,4.227C0.072,4.338 0,5.269 0,5.606L0,14.741ZM2.465,15.574L-0.417,15.574C-0.646,15.574 -0.833,15.387 -0.833,15.158L-0.833,6.529L-4.681,15.324C-4.748,15.476 -4.897,15.574 -5.062,15.574L-7.009,15.574C-7.175,15.574 -7.324,15.476 -7.391,15.324L-11.239,6.529L-11.239,15.158C-11.239,15.387 -11.425,15.574 -11.655,15.574L-14.433,15.574C-14.663,15.574 -14.849,15.387 -14.849,15.158L-14.849,-0.417C-14.849,-0.646 -14.663,-0.833 -14.433,-0.833L-11.059,-0.833C-10.895,-0.833 -10.746,-0.737 -10.679,-0.588L-5.92,9.964L-1.185,-0.587C-1.118,-0.737 -0.969,-0.833 -0.805,-0.833L2.465,-0.833C2.695,-0.833 2.881,-0.646 2.881,-0.417L2.881,15.158C2.881,15.387 2.695,15.574 2.465,15.574" style="fill:rgb(34,31,31);fill-rule:nonzero;"/>
        </g>
        <g transform="matrix(1,0,0,1,120.144,7.9097)">
            <path d="M0,14.741L9.316,14.741L9.316,13.108L2.75,13.108C2.521,13.108 2.333,12.922 2.333,12.691L2.333,8.176C2.333,7.946 2.521,7.759 2.75,7.759L8.019,7.759L8.019,6.126L2.75,6.126C2.521,6.126 2.333,5.94 2.333,5.71L2.333,2.05C2.333,1.82 2.521,1.633 2.75,1.633L9.316,1.633L9.316,0L0,0L0,14.741ZM9.732,15.574L-0.417,15.574C-0.646,15.574 -0.833,15.387 -0.833,15.158L-0.833,-0.417C-0.833,-0.646 -0.646,-0.833 -0.417,-0.833L9.732,-0.833C9.962,-0.833 10.149,-0.646 10.149,-0.417L10.149,2.05C10.149,2.28 9.962,2.466 9.732,2.466L3.167,2.466L3.167,5.294L8.435,5.294C8.665,5.294 8.851,5.48 8.851,5.71L8.851,8.176C8.851,8.405 8.665,8.592 8.435,8.592L3.167,8.592L3.167,12.275L9.732,12.275C9.962,12.275 10.149,12.462 10.149,12.691L10.149,15.158C10.149,15.387 9.962,15.574 9.732,15.574" style="fill:rgb(34,31,31);fill-rule:nonzero;"/>
        </g>
        <g transform="matrix(1,0,0,1,191.076,15.0435)">
            <path d="M0,-1.091L1.815,-1.091C3.383,-1.091 4.178,-1.859 4.178,-3.374C4.178,-4.416 3.768,-5.657 1.815,-5.657L0,-5.657L0,-1.091ZM1.815,-0.258L-0.416,-0.258C-0.646,-0.258 -0.832,-0.445 -0.832,-0.674L-0.832,-6.073C-0.832,-6.303 -0.646,-6.49 -0.416,-6.49L1.815,-6.49C3.815,-6.49 5.01,-5.325 5.01,-3.374C5.01,-1.394 3.846,-0.258 1.815,-0.258M-3.166,6.826L-0.832,6.826L-0.832,1.584C-0.832,1.353 -0.646,1.167 -0.416,1.167L2.335,1.167C5.455,1.167 7.318,-0.53 7.318,-3.374C7.318,-6.218 5.455,-7.916 2.335,-7.916L-3.166,-7.916L-3.166,6.826ZM-0.416,7.658L-3.583,7.658C-3.813,7.658 -3.999,7.472 -3.999,7.242L-3.999,-8.332C-3.999,-8.562 -3.813,-8.749 -3.583,-8.749L2.335,-8.749C6.623,-8.749 8.15,-5.972 8.15,-3.374C8.15,-0.777 6.623,2 2.335,2L0,2L0,7.242C0,7.472 -0.187,7.658 -0.416,7.658" style="fill:rgb(34,31,31);fill-rule:nonzero;"/>
        </g>
        <g transform="matrix(1,0,0,1,0,-1.2328)">
            <path d="M208.569,23.102L210.903,23.102L210.903,8.36L208.569,8.36L208.569,23.102ZM211.32,23.934L208.153,23.934C207.923,23.934 207.737,23.748 207.737,23.518L207.737,7.944C207.737,7.715 207.923,7.528 208.153,7.528L211.32,7.528C211.549,7.528 211.736,7.715 211.736,7.944L211.736,23.518C211.736,23.748 211.549,23.934 211.32,23.934" style="fill:rgb(34,31,31);fill-rule:nonzero;"/>
        </g>
        <g transform="matrix(1,0,0,1,233.194,7.1264)">
            <path d="M0,14.743L1.589,14.743L1.589,0.001L-0.408,0.001L-0.408,9.863C-0.408,10.041 -0.521,10.199 -0.687,10.257C-0.854,10.314 -1.04,10.262 -1.15,10.122L-9.176,0.001L-10.765,0.001L-10.765,14.743L-8.768,14.743L-8.768,4.88C-8.768,4.702 -8.655,4.545 -8.488,4.487C-8.322,4.429 -8.136,4.482 -8.025,4.621L0,14.743ZM2.005,15.575L-0.201,15.575C-0.329,15.575 -0.449,15.517 -0.527,15.418L-7.936,6.075L-7.936,15.159C-7.936,15.389 -8.122,15.575 -8.352,15.575L-11.181,15.575C-11.411,15.575 -11.598,15.389 -11.598,15.159L-11.598,-0.415C-11.598,-0.645 -11.411,-0.832 -11.181,-0.832L-8.975,-0.832C-8.848,-0.832 -8.728,-0.773 -8.648,-0.674L-1.24,8.669L-1.24,-0.415C-1.24,-0.645 -1.054,-0.832 -0.824,-0.832L2.005,-0.832C2.235,-0.832 2.422,-0.645 2.422,-0.415L2.422,15.159C2.422,15.389 2.235,15.575 2.005,15.575" style="fill:rgb(34,31,31);fill-rule:nonzero;"/>
        </g>
        <g transform="matrix(1,0,0,1,249.5,16.4451)">
            <path d="M0,-3.894L1.946,-3.894C3.151,-3.894 3.762,-4.435 3.762,-5.502C3.762,-6.57 3.151,-7.111 1.946,-7.111L0,-7.111L0,-3.894ZM1.946,-3.061L-0.416,-3.061C-0.646,-3.061 -0.832,-3.248 -0.832,-3.477L-0.832,-7.527C-0.832,-7.757 -0.646,-7.944 -0.416,-7.944L1.946,-7.944C3.604,-7.944 4.595,-7.031 4.595,-5.502C4.595,-3.974 3.604,-3.061 1.946,-3.061M0,3.217L2.18,3.217C3.729,3.217 4.515,2.528 4.515,1.168C4.515,-0.175 3.729,-0.856 2.18,-0.856L0,-0.856L0,3.217ZM2.18,4.05L-0.416,4.05C-0.646,4.05 -0.832,3.864 -0.832,3.634L-0.832,-1.272C-0.832,-1.502 -0.646,-1.688 -0.416,-1.688L2.18,-1.688C4.192,-1.688 5.348,-0.647 5.348,1.168C5.348,3 4.192,4.05 2.18,4.05M-3.167,5.424L2.725,5.424C5.809,5.424 7.577,3.911 7.577,1.272C7.577,-0.222 6.676,-1.623 5.334,-2.215C5.196,-2.275 5.103,-2.405 5.088,-2.554C5.072,-2.704 5.139,-2.849 5.262,-2.936C5.999,-3.457 6.747,-4.56 6.747,-5.659C6.747,-7.025 6.19,-9.317 2.465,-9.317L-3.167,-9.317L-3.167,5.424ZM2.725,6.256L-3.583,6.256C-3.813,6.256 -4,6.07 -4,5.84L-4,-9.734C-4,-9.963 -3.813,-10.15 -3.583,-10.15L2.465,-10.15C5.668,-10.15 7.58,-8.471 7.58,-5.659C7.58,-4.482 6.949,-3.382 6.238,-2.676C7.575,-1.843 8.41,-0.355 8.41,1.272C8.41,4.393 6.284,6.256 2.725,6.256" style="fill:rgb(34,31,31);fill-rule:nonzero;"/>
        </g>
        <g transform="matrix(1,0,0,1,271.895,13.1751)">
            <path d="M0,2.646L3.359,2.646L1.689,-1.489L0,2.646ZM3.976,3.479L-0.619,3.479C-0.758,3.479 -0.888,3.409 -0.965,3.295C-1.042,3.18 -1.058,3.033 -1.005,2.905L1.306,-2.753C1.369,-2.91 1.522,-3.013 1.691,-3.013C1.861,-3.012 2.014,-2.909 2.077,-2.752L4.361,2.907C4.414,3.035 4.398,3.181 4.32,3.296C4.243,3.41 4.114,3.479 3.976,3.479M6.693,8.694L8.953,8.694L2.688,-6.047L0.772,-6.047L-5.492,8.694L-3.337,8.694L-1.86,5.11C-1.797,4.954 -1.645,4.852 -1.476,4.852L4.832,4.852C5.001,4.852 5.153,4.954 5.217,5.11L6.693,8.694ZM9.582,9.526L6.415,9.526C6.246,9.526 6.095,9.425 6.03,9.269L4.554,5.685L-1.197,5.685L-2.674,9.269C-2.738,9.425 -2.89,9.526 -3.059,9.526L-6.122,9.526C-6.262,9.526 -6.393,9.456 -6.469,9.34C-6.546,9.224 -6.56,9.076 -6.505,8.947L0.114,-6.626C0.18,-6.78 0.33,-6.88 0.497,-6.88L2.963,-6.88C3.13,-6.88 3.281,-6.78 3.346,-6.626L9.965,8.947C10.02,9.076 10.006,9.224 9.929,9.34C9.852,9.456 9.722,9.526 9.582,9.526" style="fill:rgb(34,31,31);fill-rule:nonzero;"/>
        </g>
        <g transform="matrix(1,0,0,1,291.107,7.1264)">
            <path d="M0,14.743L9.316,14.743L9.316,13.109L2.75,13.109C2.521,13.109 2.333,12.923 2.333,12.693L2.333,0.001L0,0.001L0,14.743ZM9.732,15.575L-0.417,15.575C-0.646,15.575 -0.833,15.389 -0.833,15.159L-0.833,-0.415C-0.833,-0.645 -0.646,-0.832 -0.417,-0.832L2.75,-0.832C2.979,-0.832 3.166,-0.645 3.166,-0.415L3.166,12.276L9.732,12.276C9.962,12.276 10.148,12.463 10.148,12.693L10.148,15.159C10.148,15.389 9.962,15.575 9.732,15.575" style="fill:rgb(34,31,31);fill-rule:nonzero;"/>
        </g>
        <g transform="matrix(1,0,0,1,310.547,7.1264)">
            <path d="M0,14.743L9.316,14.743L9.316,13.109L2.75,13.109C2.521,13.109 2.334,12.923 2.334,12.693L2.334,0.001L0,0.001L0,14.743ZM9.732,15.575L-0.417,15.575C-0.646,15.575 -0.833,15.389 -0.833,15.159L-0.833,-0.415C-0.833,-0.645 -0.646,-0.832 -0.417,-0.832L2.75,-0.832C2.979,-0.832 3.166,-0.645 3.166,-0.415L3.166,12.276L9.732,12.276C9.962,12.276 10.149,12.463 10.149,12.693L10.149,15.159C10.149,15.389 9.962,15.575 9.732,15.575" style="fill:rgb(34,31,31);fill-rule:nonzero;"/>
        </g>
    </g>
</svg>
