<?xml version="1.0" encoding="UTF-8" standalone="no"?>
<!DOCTYPE svg PUBLIC "-//W3C//DTD SVG 1.1//EN" "http://www.w3.org/Graphics/SVG/1.1/DTD/svg11.dtd">
<svg width="100%" height="100%" viewBox="0 0 255 260" version="1.1" xmlns="http://www.w3.org/2000/svg" xmlns:xlink="http://www.w3.org/1999/xlink" xml:space="preserve" xmlns:serif="http://www.serif.com/" style="fill-rule:evenodd;clip-rule:evenodd;stroke-linejoin:round;stroke-miterlimit:2;">
    <g id="r-y-y-b">
        <g transform="matrix(1,0,0,1,16.1308,86.0664)">
            <path d="M0,-9.696L-1.771,-5.833L7.573,-1.546L9.345,-5.408C10.973,-8.958 9.44,-11.184 6.88,-12.36C4.364,-13.514 1.628,-13.245 0,-9.696M13.667,-4.514L11.48,0.249L21.275,4.742L18.762,10.224L-8.194,-2.144L-3.497,-12.389C-0.528,-18.859 4.745,-19.92 9.373,-17.795C14.045,-15.652 16.635,-10.984 13.667,-4.514" style="fill:rgb(236,177,31);fill-rule:nonzero;"/>
        </g>
        <g transform="matrix(1,0,0,1,44.311,61.4895)">
            <path d="M0,-19.394L4.307,-8.58L10.609,-14.648L0,-19.394ZM21.945,-9.574L14.698,-12.753L6.044,-4.421L8.947,2.94L4.747,6.987L-6.746,-23.123L-3.364,-26.381L26.29,-13.758L21.945,-9.574Z" style="fill:rgb(236,177,31);fill-rule:nonzero;"/>
        </g>
        <g transform="matrix(1,0,0,1,91.9775,9.5648)">
            <path d="M0,28.558C-4.604,30.355 -8.622,29.852 -11.157,28.932L-11.592,24.008C-9.068,25.038 -5.393,25.888 -1.617,24.414C1.146,23.336 2.725,21.126 1.771,18.687C0.873,16.385 -0.884,15.689 -5.827,16.347C-12.186,17.182 -15.693,14.995 -17.239,11.036C-19,6.522 -16.683,1.851 -10.744,-0.468C-7.336,-1.797 -3.793,-1.694 -1.393,-0.985L-1.063,3.397C-3.501,2.862 -6.696,2.835 -9.135,3.788C-11.852,4.848 -12.998,6.674 -12.224,8.655C-11.596,10.266 -10.144,11.133 -6.008,10.579C1.068,9.676 4.89,11.315 6.759,16.103C9.078,22.044 5.203,26.526 0,28.558" style="fill:rgb(236,177,31);fill-rule:nonzero;"/>
        </g>
        <g transform="matrix(1,0,0,1,129.476,26.0552)">
            <path d="M0,-20.197L0.402,4.759L-5.627,4.856L-6.029,-20.1L-16.061,-19.939L-16.135,-24.635L9.958,-25.053L10.032,-20.358L0,-20.197Z" style="fill:rgb(236,177,31);fill-rule:nonzero;"/>
        </g>
        <g transform="matrix(0.311409,-0.950276,-0.950276,-0.311409,172.514,32.8047)">
            <rect x="-7.347" y="10.138" width="29.66" height="6.032" style="fill:rgb(236,177,31);"/>
        </g>
        <g transform="matrix(1,0,0,1,197.63,23.67)">
            <path d="M0,36.362L11.622,22.37C12.063,21.838 13.408,20.451 13.573,20.33L10.937,21.801L-6.808,30.709L-9.657,28.341L-4.158,9.264C-3.945,8.542 -3.271,6.725 -3.156,6.434C-3.252,6.548 -4.401,8.163 -4.844,8.696L-16.466,22.688L-20.533,19.309L-1.586,-3.505L3.357,0.601L-2.977,23.546L18.377,13.074L23.167,17.055L4.22,39.867L0,36.362Z" style="fill:rgb(236,177,31);fill-rule:nonzero;"/>
        </g>
        <g transform="matrix(1,0,0,1,211.315,82.7752)">
            <path d="M0,-4.707L26.778,-17.451L35.082,-0.001L30.844,2.016L25.129,-9.988L18.837,-6.992L23.488,2.779L19.249,4.798L14.596,-4.976L6.83,-1.28L12.545,10.727L8.304,12.744L0,-4.707Z" style="fill:rgb(236,177,31);fill-rule:nonzero;"/>
        </g>
        <g transform="matrix(1,0,0,1,29.9258,175.701)">
            <path d="M0,-3.374L-1.757,-7.244L-11.121,-2.996L-9.366,0.875C-7.752,4.432 -5.062,4.732 -2.497,3.568C0.025,2.424 1.614,0.183 0,-3.374M-12.873,3.554L-15.04,-1.219L-24.855,3.234L-27.347,-2.259L-0.332,-14.516L4.324,-4.25C7.266,2.234 4.612,6.913 -0.025,9.018C-4.708,11.142 -9.931,10.036 -12.873,3.554" style="fill:rgb(236,177,31);fill-rule:nonzero;"/>
        </g>
        <g transform="matrix(0.731117,-0.682252,-0.682252,-0.731117,36.7455,221.652)">
            <rect x="-1.93" y="4.897" width="29.653" height="6.029" style="fill:rgb(236,177,31);"/>
        </g>
        <g transform="matrix(1,0,0,1,74.1601,214.516)">
            <path d="M0,33.996L-5.061,9.538L-13.86,27.017L-18.673,24.597L-5.339,-1.89L-1.586,0L3.475,24.458L12.274,6.978L17.087,9.399L3.752,35.886L0,33.996Z" style="fill:rgb(236,177,31);fill-rule:nonzero;"/>
        </g>
        <g transform="matrix(1,0,0,1,116.724,246.775)">
            <path d="M0,-6.104L4.494,-5.926C7.507,-5.809 8.807,-7.439 8.892,-9.613C8.977,-11.785 7.809,-13.513 4.796,-13.63L0.302,-13.807L0,-6.104ZM4.773,-1.712L-0.164,-1.906L-0.53,7.428L4.409,7.622C8.162,7.768 9.722,5.802 9.827,3.135C9.931,0.468 8.527,-1.565 4.773,-1.712M5.281,11.859L-6.718,11.39L-5.558,-18.241L5.948,-17.79C12.318,-17.541 14.749,-13.934 14.583,-9.686C14.494,-7.415 12.919,-5.103 11.194,-3.984C14.057,-2.585 15.77,0.451 15.646,3.56C15.46,8.351 12.394,12.137 5.281,11.859" style="fill:rgb(236,177,31);fill-rule:nonzero;"/>
        </g>
        <g transform="matrix(1,0,0,1,165.425,247.174)">
            <path d="M0,-18.491L-0.081,-6.85L8.043,-10.101L0,-18.491ZM16.639,-1.133L11.12,-6.805L-0.033,-2.343L-0.116,5.571L-5.533,7.738L-4.848,-24.485L-0.486,-26.229L22.237,-3.373L16.639,-1.133Z" style="fill:rgb(236,177,31);fill-rule:nonzero;"/>
        </g>
        <g transform="matrix(1,0,0,1,211.501,201.242)">
            <path d="M0,25.264L-20.929,4.257L-16.657,0L0.958,17.681L10.375,8.298L13.69,11.624L0,25.264Z" style="fill:rgb(236,177,31);fill-rule:nonzero;"/>
        </g>
        <g transform="matrix(1,0,0,1,240.944,169.685)">
            <path d="M0,19.557L-27.051,7.387L-24.575,1.885L-1.808,12.128L3.649,0L7.932,1.927L0,19.557Z" style="fill:rgb(236,177,31);fill-rule:nonzero;"/>
        </g>
        <g transform="matrix(1,0,0,1,5.3003,134.362)">
            <path d="M0,-11.938C2.065,-11.972 4.934,-11.767 5.482,-12.006C5.67,-11.887 5.771,-11.41 5.277,-11.323C4.712,-11.222 2.681,-11.272 0.75,-11.289C0.972,-11.118 1.126,-10.913 1.093,-10.744C0.938,-9.991 0.306,-8.881 -0.888,-6.524C0.75,-6.661 2.681,-6.849 2.953,-6.61C3.313,-6.302 2.902,-6.029 2.697,-6.046C2.492,-6.2 0.29,-5.894 -1.315,-5.688C-2.136,-4.048 -3.074,-1.966 -3.4,-0.923C-1.47,-1.111 1.792,-1.589 2.186,-1.196C2.458,-0.923 2.169,-0.581 2.015,-0.632C1.913,-0.991 -3.672,-0.224 -4.338,0.068C-4.903,0.068 -5.159,-0.598 -5.038,-0.837C-5.055,-0.872 -5.072,-0.906 -5.072,-0.94C-5.106,-1.503 -3.877,-3.93 -3.091,-5.551C-3.467,-5.706 -3.588,-6.338 -3.246,-6.439C-3.178,-6.405 -2.973,-6.389 -2.698,-6.389C-1.658,-8.659 -0.683,-10.401 -0.394,-11.272C-2.493,-11.154 -4.493,-10.384 -4.338,-9.308C-5.381,-9.291 -5.569,-10.351 -4.937,-10.982C-4.032,-11.904 -1.076,-11.921 0,-11.938" style="fill:rgb(33,30,31);fill-rule:nonzero;"/>
        </g>
        <g transform="matrix(1,0,0,1,9.7168,128.59)">
            <path d="M0,2.014C0.461,1.946 0.888,1.946 0.991,1.997C1.093,2.048 1.11,2.219 1.008,2.322C0.53,2.322 -0.512,2.955 -0.596,3.329C-0.478,3.585 0.222,3.739 1.093,3.705C1.213,3.654 1.315,3.568 1.436,3.449C2.084,2.801 1.641,1.418 1.436,0.769C1.385,0.614 1.332,0.443 1.315,0.289C0.905,0.836 0.444,1.452 0,2.014M1.418,-0.838C1.503,-1.145 1.641,-1.437 1.846,-1.692C2.29,-2.288 2.852,-2.785 3.484,-2.785C4.288,-2.785 4.56,-1.743 4.304,-1.589C3.843,-1.606 2.818,-1.232 2.818,-0.051C2.818,0.921 3.501,1.946 3.382,2.885C4.442,2.1 5.636,0.426 5.996,-0.018C6.251,-0.324 6.611,-0.138 6.406,0.255C5.962,1.008 4.954,2.545 3.655,3.534C2.408,4.492 0.222,4.799 -1.315,3.654C-1.844,3.262 -2.186,2.474 -0.99,2.236C-0.273,1.418 0.719,0.05 1.418,-0.838" style="fill:rgb(33,30,31);fill-rule:nonzero;"/>
        </g>
        <g transform="matrix(1,0,0,1,18.2856,129.803)">
            <path d="M0,-3.4C0.702,-3.4 1.281,-3.366 1.368,-3.279C1.556,-3.041 1.401,-2.717 1.129,-2.734C1.008,-2.785 0.393,-2.818 -0.307,-2.818L-0.596,-2.17C-1.554,0.067 -2.561,2.372 -1.672,2.492C-1.144,2.56 0.222,1.04 0.77,0.205C0.924,0.084 1.042,0.239 1.042,0.408C0.94,1.04 0.325,2.492 -0.529,3.004C-1.11,3.347 -3.296,2.835 -3.482,1.793C-3.637,0.989 -3.176,-0.359 -1.945,-2.801C-2.322,-2.785 -2.611,-2.785 -2.698,-2.785C-3.038,-2.785 -2.988,-3.262 -2.63,-3.4C-2.527,-3.366 -2.133,-3.366 -1.656,-3.383C-0.613,-5.398 -0.102,-6.131 0,-6.558C0.547,-6.747 1.334,-6.131 1.247,-5.757C1.163,-5.398 0.564,-4.459 0,-3.4" style="fill:rgb(33,30,31);fill-rule:nonzero;"/>
        </g>
        <g transform="matrix(0.543191,0.839609,0.839609,-0.543191,19.5204,131.968)">
            <path d="M0.907,-0.332C0.623,-0.677 0.007,-0.403 0.013,0.142C-0.022,0.716 0.443,1.595 0.907,1.743C1.325,1.856 1.577,1.205 1.468,0.851C1.42,0.493 1.242,-0.001 0.907,-0.332" style="fill:rgb(33,30,31);fill-rule:nonzero;"/>
        </g>
        <g transform="matrix(1,0,0,1,227.361,125.699)">
            <path d="M0,6.599C-0.545,6.454 -0.739,6.507 -0.922,6.583C-1.22,6.715 -1.182,7.22 -0.793,7.104C-0.623,7.053 -0.351,6.871 0,6.599M0.39,1.055C0.7,0.225 2.154,-0.945 3.39,-1.23C4.778,-1.543 6.907,-0.503 6.413,0.937C5.945,2.3 3.531,4.962 1.662,6.599C2.584,6.871 3.362,7.078 3.791,7.104C4.804,7.169 5.246,6.583 5.388,6.326C5.557,6.026 5.804,6.091 5.726,6.454C5.66,6.753 5.296,7.715 4.584,7.857C3.647,8.038 2.195,7.338 1.208,6.975C0.519,7.545 -0.053,7.922 -0.363,7.988C-1.182,8.142 -2.013,7.247 -1.674,6.48C-1.454,6.026 -0.83,5.806 0.442,6.207C1.091,5.623 1.935,4.755 2.935,3.624C4.466,1.886 5.842,-0.076 5.246,-0.503C4.726,-0.88 3.44,-0.49 2.377,0.275C1.221,1.093 0.96,2.015 1.208,2.131C1.261,2.209 1.129,2.417 0.856,2.353C0.455,2.262 0.129,1.755 0.39,1.055" style="fill:rgb(33,30,31);fill-rule:nonzero;"/>
        </g>
        <g transform="matrix(1,0,0,1,235.842,129.141)">
            <path d="M0,-0.336C-1.22,2.22 -1.038,3.909 -0.051,3.934C0.558,3.947 2.479,2.96 3.985,-0.258C5.116,-2.596 4.753,-4.01 3.998,-4.167C2.985,-4.374 1.22,-2.919 0,-0.336M2.116,-4.776C3.207,-5.309 5.038,-4.349 5.492,-3.596C5.895,-2.919 5.92,-1.738 5.038,0.131C4.063,2.248 2.596,3.922 1.441,4.402C0.078,4.973 -1.753,3.934 -1.985,2.702C-2.154,1.806 -1.947,0.273 -0.728,-1.765C0.429,-3.7 1.649,-4.543 2.116,-4.776" style="fill:rgb(33,30,31);fill-rule:nonzero;"/>
        </g>
        <g transform="matrix(1,0,0,1,245.18,124.363)">
            <path d="M0,9.038C-0.817,8.984 -3.583,8.984 -4.271,9.051C-4.737,9.089 -4.944,8.596 -4.401,8.57C-4.076,8.543 -3.518,8.543 -2.894,8.53C-2.96,8.452 -2.973,8.374 -2.935,8.283C-2.725,7.828 0.43,1.636 0.43,1.636C0.43,1.636 -1.078,2.532 -1.621,2.727C-2.091,2.896 -2.167,2.454 -2.076,2.376C-1.803,2.351 0.404,0.792 1.183,0.325C1.806,-0.051 2.246,0.312 2.377,0.572C2.025,0.911 -1.154,7.27 -1.687,8.53C-0.947,8.543 -0.298,8.57 -0.065,8.608C0.261,8.659 0.39,9.063 0,9.038" style="fill:rgb(33,30,31);fill-rule:nonzero;"/>
        </g>
        <g transform="matrix(1,0,0,1,253.129,130.243)">
            <path d="M0,-2.646C0.597,-4.075 0.637,-5.424 -0.389,-5.348C-3.091,-5.126 -4.389,-1.335 -3.376,-0.621C-2.752,-0.181 -0.896,-1.479 0,-2.646M-1.065,-0.777C-1.401,-0.492 -1.765,-0.232 -2.104,-0.103C-3.389,0.417 -4.492,-0.557 -4.815,-1.348C-5.283,-2.492 -4.051,-5.399 -1.843,-6.048C-0.325,-6.49 1.104,-5.399 1.48,-4.361C1.844,-3.361 1.183,-2.05 0.546,-0.972C-0.661,1.132 -2.699,3.221 -3.815,3.546C-4.843,3.844 -5.232,2.948 -4.984,2.793C-4.401,2.884 -2.623,1.468 -1.065,-0.777" style="fill:rgb(33,30,31);fill-rule:nonzero;"/>
        </g>
        <g transform="matrix(1,0,0,1,149.425,106.121)">
            <path d="M0,44.133C-5.894,50.028 -13.729,53.273 -22.065,53.273C-30.401,53.273 -38.237,50.028 -44.131,44.133C-56.299,31.966 -56.299,12.169 -44.132,0.001C-38.237,-5.893 -30.401,-9.139 -22.065,-9.139C-13.729,-9.139 -5.894,-5.893 0,0.001C12.168,12.169 12.168,31.966 0,44.133M20.271,33.676C34.715,35.828 49.216,37.688 63.879,38.713C49.894,34.19 35.747,30.5 21.543,27.104C18.983,26.462 16.407,25.909 13.831,25.345C13.871,24.912 13.933,24.483 13.955,24.049C16.513,23.978 19.072,23.918 21.635,23.779C32.132,23.323 41.175,22.769 49.468,22.068C41.175,21.363 32.127,20.81 21.616,20.354C19.066,20.216 16.511,20.154 13.955,20.083C13.945,19.905 13.916,19.728 13.904,19.55C16.486,19.04 19.072,18.544 21.642,17.956C35.913,14.861 50.134,11.464 64.209,7.224C49.525,7.931 34.988,9.482 20.502,11.334C17.882,11.638 15.277,12.034 12.673,12.419C12.559,12.009 12.438,11.602 12.31,11.196C14.685,10.223 17.063,9.257 19.418,8.216C29.105,4.066 37.397,0.334 44.951,-3.286C36.901,-1.004 28.209,1.689 18.179,4.995C15.762,5.761 13.366,6.606 10.966,7.439C10.596,6.6 10.116,5.805 9.679,4.991C11.826,3.461 13.983,1.946 16.087,0.35C27.824,-8.339 39.39,-17.282 50.478,-26.934C37.384,-20.253 24.77,-12.862 12.325,-5.218C10.056,-3.86 7.838,-2.425 5.613,-0.998C5.341,-1.325 5.094,-1.666 4.808,-1.986C6.57,-3.846 8.34,-5.701 10.055,-7.615C17.188,-15.392 23.213,-22.207 28.596,-28.594C22.206,-23.21 15.391,-17.183 7.602,-10.041C5.697,-8.334 3.845,-6.567 1.985,-4.807C1.855,-4.924 1.715,-5.021 1.583,-5.136C3.05,-7.327 4.53,-9.509 5.934,-11.745C13.837,-24.025 21.489,-36.483 28.444,-49.434C18.562,-38.551 9.379,-27.175 0.445,-15.622C-1.19,-13.556 -2.75,-11.437 -4.32,-9.325C-4.691,-9.535 -5.071,-9.722 -5.449,-9.919C-4.457,-12.287 -3.455,-14.656 -2.527,-17.059C1.392,-26.857 4.616,-35.36 7.395,-43.252C3.315,-35.944 -0.926,-27.89 -5.678,-18.459C-6.841,-16.221 -7.933,-13.942 -9.035,-11.669C-9.903,-12.003 -10.807,-12.191 -11.692,-12.456C-11.256,-15.055 -10.802,-17.652 -10.443,-20.266C-8.288,-34.71 -6.434,-49.213 -5.419,-63.877C-9.952,-49.894 -13.646,-35.748 -17.04,-21.544C-17.684,-18.984 -18.236,-16.407 -18.799,-13.831C-19.224,-13.869 -19.645,-13.929 -20.07,-13.953C-20.141,-16.511 -20.2,-19.071 -20.342,-21.633C-20.797,-32.173 -21.354,-41.254 -22.066,-49.586C-22.778,-41.251 -23.335,-32.167 -23.792,-21.615C-23.931,-19.065 -23.991,-16.508 -24.061,-13.953C-24.235,-13.943 -24.407,-13.914 -24.581,-13.903C-25.092,-16.485 -25.587,-19.071 -26.176,-21.64C-29.271,-35.911 -32.668,-50.132 -36.908,-64.207C-36.201,-49.524 -34.65,-34.987 -32.798,-20.5C-32.494,-17.881 -32.098,-15.278 -31.713,-12.671C-32.124,-12.558 -32.53,-12.437 -32.937,-12.309C-33.909,-14.683 -34.875,-17.062 -35.916,-19.415C-40.071,-29.109 -43.803,-37.403 -47.42,-44.947C-45.137,-36.9 -42.443,-28.206 -39.137,-18.178C-38.371,-15.761 -37.528,-13.365 -36.695,-10.965C-37.533,-10.595 -38.328,-10.115 -39.141,-9.678C-40.671,-11.825 -42.186,-13.982 -43.782,-16.085C-52.471,-27.823 -61.414,-39.388 -71.066,-50.476C-64.384,-37.383 -56.994,-24.767 -49.35,-12.324C-47.991,-10.054 -46.556,-7.836 -45.13,-5.613C-45.457,-5.34 -45.797,-5.093 -46.116,-4.807C-47.977,-6.569 -49.833,-8.337 -51.747,-10.053C-59.522,-17.183 -66.334,-23.21 -72.728,-28.594C-67.339,-22.201 -61.312,-15.384 -54.172,-7.599C-52.466,-5.696 -50.698,-3.843 -48.939,-1.985C-49.056,-1.854 -49.154,-1.714 -49.269,-1.582C-51.459,-3.049 -53.641,-4.53 -55.877,-5.932C-68.158,-13.835 -80.615,-21.489 -93.565,-28.443C-82.683,-18.561 -71.307,-9.377 -59.754,-0.444C-57.688,1.192 -55.569,2.752 -53.457,4.321C-53.667,4.694 -53.855,5.072 -54.051,5.45C-56.421,4.457 -58.789,3.456 -61.193,2.527C-70.989,-1.389 -79.492,-4.616 -87.382,-7.392C-80.073,-3.313 -72.022,0.928 -62.593,5.679C-60.353,6.841 -58.075,7.932 -55.801,9.035C-56.135,9.904 -56.323,10.807 -56.588,11.694C-59.188,11.258 -61.784,10.804 -64.398,10.445C-78.842,8.29 -93.344,6.435 -108.009,5.42C-94.026,9.954 -79.88,13.648 -65.676,17.042C-63.116,17.685 -60.539,18.237 -57.963,18.8C-58.001,19.224 -58.062,19.647 -58.085,20.072C-60.643,20.142 -63.203,20.202 -65.765,20.342C-76.31,20.799 -85.389,21.355 -93.718,22.068C-85.377,22.781 -76.293,23.338 -65.747,23.794C-63.197,23.934 -60.64,23.995 -58.085,24.064C-58.075,24.242 -58.046,24.418 -58.034,24.596C-60.615,25.108 -63.201,25.603 -65.77,26.19C-80.042,29.288 -94.262,32.68 -108.339,36.909C-93.658,36.192 -79.121,34.636 -64.635,32.786C-62.016,32.482 -59.413,32.086 -56.808,31.703C-56.692,32.121 -56.568,32.536 -56.438,32.951C-58.811,33.923 -61.189,34.889 -63.543,35.929C-73.203,40.07 -81.469,43.788 -88.979,47.381C-80.974,45.105 -72.313,42.42 -62.314,39.126C-59.897,38.358 -57.503,37.516 -55.104,36.684C-54.73,37.529 -54.246,38.333 -53.804,39.154C-55.951,40.684 -58.106,42.199 -60.209,43.794C-71.946,52.485 -83.515,61.424 -94.608,71.068C-81.521,64.377 -68.908,56.983 -56.463,49.341C-54.195,47.982 -51.978,46.548 -49.753,45.122C-49.475,45.456 -49.222,45.803 -48.93,46.13C-50.691,47.99 -52.46,49.845 -54.176,51.759C-61.277,59.502 -67.283,66.289 -72.652,72.656C-66.29,67.286 -59.5,61.279 -51.744,54.165C-49.84,52.458 -47.986,50.692 -46.127,48.933C-45.99,49.055 -45.842,49.158 -45.704,49.279C-47.17,51.47 -48.65,53.651 -50.054,55.886C-57.954,68.168 -65.611,80.622 -72.575,93.567C-62.701,82.678 -53.521,71.299 -44.586,59.748C-42.952,57.682 -41.392,55.564 -39.822,53.452C-39.443,53.667 -39.056,53.859 -38.67,54.059C-39.662,56.429 -40.662,58.797 -41.592,61.198C-45.495,70.959 -48.711,79.434 -51.479,87.283C-47.429,80.014 -43.204,71.989 -38.463,62.592C-37.303,60.351 -36.211,58.073 -35.108,55.8C-34.232,56.138 -33.32,56.327 -32.426,56.594C-32.861,59.193 -33.314,61.788 -33.674,64.403C-35.827,78.847 -37.687,93.348 -38.712,108.011C-34.188,94.026 -30.499,79.879 -27.103,65.675C-26.461,63.115 -25.909,60.539 -25.345,57.964C-24.912,58.003 -24.481,58.065 -24.047,58.088C-23.978,60.646 -23.916,63.204 -23.777,65.765C-23.321,76.267 -22.769,85.313 -22.066,93.606C-21.361,85.313 -20.81,76.261 -20.352,65.747C-20.215,63.199 -20.152,60.643 -20.083,58.088C-19.9,58.077 -19.719,58.049 -19.536,58.035C-19.025,60.617 -18.529,63.201 -17.942,65.771C-14.845,80.042 -11.452,94.264 -7.223,108.34C-7.94,93.659 -9.496,79.122 -11.346,64.636C-11.65,62.017 -12.046,59.414 -12.429,56.809C-12.011,56.694 -11.596,56.57 -11.181,56.439C-10.208,58.813 -9.243,61.191 -8.203,63.545C-4.058,73.209 -0.34,81.477 3.25,88.977C0.973,80.97 -1.714,72.31 -5.007,62.314C-5.773,59.897 -6.616,57.504 -7.448,55.105C-6.603,54.731 -5.8,54.246 -4.979,53.805C-3.448,55.952 -1.932,58.108 -0.338,60.211C8.354,71.947 17.292,83.516 26.936,94.61C20.245,81.522 12.851,68.909 5.208,56.465C3.85,54.196 2.415,51.979 0.99,49.754C1.323,49.477 1.671,49.224 1.997,48.933C3.857,50.694 5.712,52.463 7.624,54.177C15.376,61.284 22.161,67.289 28.522,72.656C23.151,66.286 17.143,59.496 10.034,51.744C8.327,49.84 6.561,47.987 4.801,46.128C4.924,45.991 5.026,45.843 5.146,45.705C7.337,47.172 9.519,48.652 11.754,50.055C24.036,57.956 36.49,65.612 49.436,72.576C38.546,62.702 27.167,53.524 15.616,44.588C13.55,42.953 11.432,41.393 9.32,39.824C9.535,39.445 9.727,39.058 9.927,38.671C12.297,39.663 14.664,40.663 17.067,41.594C26.823,45.495 35.297,48.71 43.15,51.481C35.873,47.426 27.85,43.201 18.457,38.466C16.217,37.305 13.939,36.214 11.666,35.111C12.004,34.235 12.193,33.323 12.461,32.428C15.061,32.863 17.656,33.316 20.271,33.676" style="fill:rgb(13,13,13);fill-rule:nonzero;"/>
        </g>
        <g transform="matrix(1,0,0,1,127.36,162.63)">
            <path d="M0,-68.885C-9.2,-68.885 -17.85,-65.302 -24.355,-58.797C-37.784,-45.367 -37.784,-23.516 -24.355,-10.088C-17.85,-3.582 -9.201,0 0,0C9.201,0 17.849,-3.582 24.354,-10.088C30.85,-16.583 34.427,-25.233 34.427,-34.442C34.427,-43.651 30.85,-52.301 24.354,-58.796C17.849,-65.302 9.2,-68.885 0,-68.885M0,-65.649C8.335,-65.649 16.171,-62.402 22.065,-56.508C34.233,-44.341 34.233,-24.543 22.065,-12.376C16.171,-6.482 8.335,-3.237 0,-3.237C-8.336,-3.237 -16.172,-6.482 -22.066,-12.376C-34.234,-24.543 -34.234,-44.341 -22.067,-56.508C-16.172,-62.402 -8.336,-65.649 0,-65.649" style="fill:rgb(236,177,31);fill-rule:nonzero;"/>
        </g>
        <g transform="matrix(1,0,0,1,127.359,132.172)">
            <path d="M0,16.149C-14.157,16.149 -25.752,5.647 -27.702,-7.971C-27.891,-6.657 -28.104,-5.35 -28.104,-3.985C-28.104,11.537 -15.521,24.12 0,24.12C15.521,24.12 28.104,11.537 28.104,-3.984C28.104,-5.35 27.892,-6.657 27.703,-7.97C25.752,5.647 14.156,16.149 0,16.149" style="fill:rgb(236,177,31);fill-rule:nonzero;"/>
        </g>
        <g transform="matrix(1,0,0,1,14.7807,84.6317)">
            <path d="M0,-3.252L7.875,0.229L9.254,-2.894C10.449,-5.597 9.73,-7.553 7.119,-8.708C6.301,-9.068 5.083,-9.423 3.934,-9.055C2.875,-8.716 2.016,-7.814 1.38,-6.375L0,-3.252ZM8.301,2.167C8.186,2.167 8.071,2.144 7.963,2.096L-1.44,-2.061C-1.862,-2.248 -2.053,-2.741 -1.867,-3.163L-0.149,-7.05C0.688,-8.946 1.891,-10.156 3.424,-10.647C4.729,-11.064 6.241,-10.923 7.795,-10.236C11.267,-8.701 12.356,-5.778 10.784,-2.218L9.066,1.669C8.976,1.872 8.81,2.031 8.603,2.111C8.506,2.148 8.403,2.167 8.301,2.167M-6.371,0.527L19.226,11.841L20.988,7.854L11.895,3.836C11.692,3.747 11.533,3.58 11.454,3.373C11.374,3.166 11.379,2.936 11.469,2.734L13.588,-2.06C15.979,-7.469 14.464,-11.999 9.536,-14.177C7.289,-15.172 5.064,-15.311 3.102,-14.58C0.879,-13.752 -0.889,-11.881 -2.154,-9.019L-6.371,0.527ZM19.653,13.78C19.538,13.78 19.422,13.756 19.315,13.708L-7.811,1.718C-8.233,1.531 -8.424,1.038 -8.238,0.616L-3.684,-9.694C-2.249,-12.939 -0.104,-15.169 2.519,-16.146C4.897,-17.032 7.558,-16.881 10.211,-15.706C14.755,-13.697 18.43,-8.88 15.117,-1.384L13.335,2.645L22.428,6.663C22.85,6.849 23.041,7.343 22.854,7.765L20.417,13.282C20.328,13.484 20.161,13.643 19.955,13.723C19.857,13.761 19.755,13.78 19.653,13.78" style="fill:rgb(186,4,26);fill-rule:nonzero;"/>
        </g>
        <g transform="matrix(1,0,0,1,44.6553,60.9792)">
            <path d="M0,-16.143L3.192,-8.441L7.646,-12.85L0,-16.143ZM2.896,-6.137C2.842,-6.137 2.786,-6.142 2.731,-6.153C2.458,-6.208 2.231,-6.395 2.125,-6.653L-2.333,-17.405C-2.463,-17.719 -2.39,-18.081 -2.147,-18.32C-1.905,-18.559 -1.542,-18.627 -1.23,-18.493L9.444,-13.895C9.7,-13.785 9.883,-13.556 9.935,-13.283C9.987,-13.01 9.899,-12.729 9.702,-12.534L3.484,-6.379C3.327,-6.222 3.114,-6.137 2.896,-6.137M-7.377,-21.156L3.863,7.104L6.712,4.282L3.919,-2.521C3.791,-2.834 3.864,-3.194 4.104,-3.432L12.641,-11.884C12.882,-12.122 13.243,-12.191 13.554,-12.06L20.329,-9.2L23.319,-12.162L-4.826,-23.682L-7.377,-21.156ZM3.554,9.422C3.497,9.422 3.439,9.417 3.383,9.405C3.108,9.347 2.881,9.156 2.777,8.896L-9.135,-21.051C-9.259,-21.363 -9.185,-21.718 -8.946,-21.954L-5.609,-25.259C-5.371,-25.495 -5.013,-25.565 -4.705,-25.438L25.122,-13.23C25.381,-13.124 25.57,-12.894 25.625,-12.619C25.68,-12.344 25.593,-12.06 25.393,-11.863L21.107,-7.619C20.867,-7.38 20.506,-7.31 20.194,-7.442L13.419,-10.303L5.678,-2.638L8.471,4.165C8.6,4.478 8.526,4.837 8.286,5.076L4.142,9.18C3.984,9.337 3.771,9.422 3.554,9.422" style="fill:rgb(186,4,26);fill-rule:nonzero;"/>
        </g>
        <g transform="matrix(1,0,0,1,80.3266,9.6719)">
            <path d="M0,28.846C2.013,29.448 5.63,29.971 10.059,28.17C14.533,26.35 18.491,22.385 16.184,16.711C14.402,12.327 10.943,10.926 4.232,11.878C0.15,12.484 -1.986,11.781 -2.901,9.528C-3.399,8.304 -3.31,7.082 -2.643,5.995C-2.025,4.987 -0.911,4.135 0.579,3.53C2.94,2.569 5.804,2.504 8.031,2.798L7.789,0.09C5.686,-0.369 2.573,-0.386 -0.46,0.846C-5.747,2.996 -8.053,7.119 -6.333,11.35C-4.738,15.276 -1.275,16.795 4.257,15.988C8.684,15.335 11.499,15.576 12.782,18.734C13.357,20.148 13.249,21.575 12.469,22.861C11.767,24.018 10.572,24.964 9.014,25.597C5.595,26.987 2.224,26.566 -0.314,25.78L0,28.846ZM3.962,31.08C1.788,31.08 0.059,30.648 -1.05,30.263C-1.357,30.157 -1.574,29.882 -1.607,29.559L-2.112,24.642C-2.142,24.352 -2.018,24.068 -1.786,23.891C-1.554,23.715 -1.246,23.672 -0.976,23.779C1.353,24.691 4.869,25.477 8.384,24.049C9.59,23.559 10.533,22.829 11.04,21.993C11.542,21.166 11.607,20.282 11.234,19.364C10.529,17.629 9.339,16.931 4.499,17.642C-1.818,18.563 -5.981,16.656 -7.882,11.979C-9.951,6.888 -7.221,1.791 -1.089,-0.703C2.056,-1.98 5.751,-2.234 8.793,-1.382C9.128,-1.289 9.37,-0.998 9.401,-0.652L9.792,3.726C9.815,3.99 9.713,4.248 9.516,4.424C9.318,4.599 9.053,4.672 8.792,4.619C6.716,4.193 3.633,4.091 1.208,5.078C0.051,5.549 -0.788,6.167 -1.218,6.868C-1.601,7.493 -1.646,8.177 -1.353,8.899C-1.069,9.597 -0.541,10.896 3.993,10.224C11.423,9.169 15.658,10.977 17.733,16.082C20.507,22.904 15.672,27.692 10.689,29.719C8.178,30.739 5.895,31.08 3.962,31.08" style="fill:rgb(186,4,26);fill-rule:nonzero;"/>
        </g>
        <g transform="matrix(1,0,0,1,121.719,26.6201)">
            <path d="M0,-21.444C0.45,-21.444 0.821,-21.086 0.835,-20.633L1.56,3.479L5.917,3.348L5.192,-20.764C5.185,-20.986 5.267,-21.201 5.419,-21.362C5.571,-21.524 5.781,-21.618 6.002,-21.625L15.195,-21.901L15.105,-24.924L-9.309,-24.191L-9.219,-21.168L-0.025,-21.444L0,-21.444M0.749,5.176C0.299,5.176 -0.072,4.818 -0.086,4.365L-0.811,-19.748L-10.004,-19.472C-10.219,-19.462 -10.441,-19.547 -10.603,-19.699C-10.764,-19.851 -10.858,-20.061 -10.865,-20.282L-11.004,-24.976C-11.018,-25.438 -10.655,-25.823 -10.194,-25.837L15.891,-26.62C16.109,-26.616 16.327,-26.545 16.489,-26.393C16.65,-26.241 16.745,-26.031 16.751,-25.809L16.891,-21.115C16.905,-20.653 16.542,-20.268 16.081,-20.255L6.888,-19.979L7.612,4.134C7.619,4.355 7.538,4.57 7.386,4.731C7.233,4.893 7.024,4.987 6.803,4.994L0.774,5.175C0.766,5.175 0.757,5.176 0.749,5.176" style="fill:rgb(186,4,26);fill-rule:nonzero;"/>
        </g>
        <g transform="matrix(1,0,0,1,154.577,8.3712)">
            <path d="M0,25.446L4.161,26.745L12.506,0.029L8.344,-1.271L0,25.446ZM4.71,28.628C4.628,28.628 4.544,28.615 4.461,28.59L-1.296,26.793C-1.508,26.727 -1.685,26.579 -1.787,26.383C-1.89,26.187 -1.911,25.957 -1.845,25.746L6.997,-2.567C7.063,-2.779 7.211,-2.955 7.407,-3.058C7.604,-3.162 7.834,-3.182 8.044,-3.116L13.802,-1.317C14.242,-1.179 14.488,-0.71 14.351,-0.27L5.508,28.041C5.396,28.399 5.066,28.628 4.71,28.628" style="fill:rgb(186,4,26);fill-rule:nonzero;"/>
        </g>
        <g transform="matrix(1,0,0,1,197.824,22.7617)">
            <path d="M0,36.16L2.968,38.556L20.545,16.782L16.77,13.734L-3.952,24.258C-4.245,24.408 -4.599,24.37 -4.855,24.163C-5.111,23.957 -5.223,23.619 -5.14,23.302L0.737,0.792L-3.192,-2.38L-20.77,19.396L-17.955,21.667L-7.056,8.165C-6.773,7.815 -6.145,6.925 -5.769,6.393C-5.575,6.119 -5.434,5.921 -5.402,5.881C-5.146,5.561 -4.692,5.475 -4.338,5.677C-3.98,5.88 -3.823,6.311 -3.967,6.696C-4.077,6.992 -4.717,8.794 -4.907,9.474L-9.994,28.093L-7.962,29.734L9.171,20.832L11.756,19.342C12.138,19.119 12.626,19.237 12.87,19.604C13.113,19.973 13.028,20.467 12.676,20.733C12.517,20.874 11.299,22.163 10.9,22.658L0,36.16ZM3.093,40.568C2.902,40.568 2.717,40.503 2.567,40.382L-1.701,36.936C-2.06,36.646 -2.116,36.119 -1.826,35.761L8.369,23.132L-7.676,31.47C-7.972,31.623 -8.326,31.587 -8.587,31.378L-11.47,29.051C-11.728,28.842 -11.838,28.5 -11.751,28.18L-6.985,10.739L-17.18,23.368C-17.319,23.54 -17.521,23.65 -17.741,23.674C-17.969,23.695 -18.183,23.632 -18.355,23.493L-22.47,20.172C-22.828,19.882 -22.885,19.355 -22.595,18.996L-3.968,-4.08C-3.828,-4.253 -3.626,-4.363 -3.406,-4.386C-3.181,-4.408 -2.965,-4.345 -2.792,-4.206L2.208,-0.17C2.463,0.037 2.574,0.374 2.491,0.692L-3.053,21.926L16.495,11.998C16.79,11.848 17.142,11.887 17.399,12.093L22.245,16.007C22.604,16.297 22.66,16.823 22.37,17.182L3.743,40.257C3.604,40.429 3.401,40.539 3.182,40.563C3.151,40.566 3.122,40.568 3.093,40.568" style="fill:rgb(186,4,26);fill-rule:nonzero;"/>
        </g>
        <g transform="matrix(1,0,0,1,211.704,80.6983)">
            <path d="M0,-3.428L7.808,12.406L10.521,11.069L5.009,-0.107C4.911,-0.305 4.896,-0.535 4.968,-0.745C5.039,-0.955 5.19,-1.128 5.389,-1.226L13.102,-5.03C13.518,-5.234 14.017,-5.064 14.222,-4.65L18.641,4.308L21.353,2.97L16.935,-5.987C16.73,-6.401 16.9,-6.902 17.314,-7.106L23.563,-10.189C23.763,-10.287 23.993,-10.303 24.202,-10.231C24.412,-10.159 24.585,-10.008 24.684,-9.809L30.195,1.365L32.906,0.028L25.099,-15.806L0,-3.428ZM7.429,14.361C7.12,14.361 6.823,14.19 6.678,13.895L-1.869,-3.438C-2.073,-3.852 -1.902,-4.353 -1.489,-4.557L25.108,-17.675C25.308,-17.773 25.538,-17.789 25.747,-17.717C25.957,-17.645 26.13,-17.493 26.229,-17.295L34.775,0.038C34.979,0.452 34.809,0.953 34.396,1.157L30.186,3.234C29.77,3.438 29.271,3.268 29.065,2.854L23.554,-8.32L18.804,-5.976L23.222,2.98C23.426,3.394 23.256,3.895 22.842,4.099L18.631,6.177C18.432,6.276 18.2,6.29 17.992,6.219C17.782,6.148 17.609,5.996 17.511,5.798L13.092,-3.161L6.878,-0.096L12.391,11.079C12.488,11.278 12.503,11.508 12.432,11.718C12.36,11.927 12.209,12.101 12.01,12.198L7.797,14.275C7.679,14.333 7.553,14.361 7.429,14.361" style="fill:rgb(186,4,26);fill-rule:nonzero;"/>
        </g>
        <g transform="matrix(1,0,0,1,20.5268,175.011)">
            <path d="M0,-0.431L1.453,2.659C2.711,5.332 4.659,6.071 7.247,4.856C8.057,4.474 9.123,3.787 9.598,2.677C10.035,1.656 9.917,0.417 9.247,-1.008L7.792,-4.098L0,-0.431ZM5.13,7.098C2.94,7.153 1.12,5.877 -0.059,3.371L-1.869,-0.475C-2.064,-0.893 -1.886,-1.391 -1.468,-1.587L7.835,-5.966C8.253,-6.166 8.75,-5.983 8.947,-5.566L10.758,-1.72C11.642,0.155 11.768,1.856 11.134,3.336C10.594,4.595 9.497,5.644 7.958,6.368C6.967,6.835 6.018,7.076 5.13,7.098M-5.027,0.165C-4.706,0.157 -4.396,0.336 -4.25,0.644L-2.017,5.386C-0.681,8.223 1.127,10.055 3.355,10.832C5.33,11.517 7.556,11.323 9.793,10.27C14.67,7.975 16.077,3.409 13.558,-1.945L9.114,-11.388L-16.214,0.532L-14.358,4.478L-5.362,0.245C-5.253,0.193 -5.14,0.168 -5.027,0.165M6.017,12.904C4.913,12.931 3.835,12.768 2.806,12.41C0.175,11.494 -2.016,9.312 -3.529,6.098L-5.406,2.113L-14.402,6.346C-14.603,6.442 -14.833,6.452 -15.042,6.377C-15.25,6.3 -15.42,6.147 -15.515,5.946L-18.083,0.488C-18.278,0.07 -18.1,-0.428 -17.682,-0.623L9.158,-13.256C9.359,-13.352 9.588,-13.362 9.797,-13.287C10.006,-13.212 10.176,-13.057 10.271,-12.857L15.07,-2.657C18.561,4.761 15.001,9.667 10.505,11.782C8.999,12.492 7.484,12.867 6.017,12.904" style="fill:rgb(186,4,26);fill-rule:nonzero;"/>
        </g>
        <g transform="matrix(1,0,0,1,30.2607,200.036)">
            <path d="M0,16.312L3.018,19.456L23.207,0.083L20.189,-3.062L0,16.312ZM3.014,21.473C2.788,21.479 2.56,21.393 2.391,21.216L-1.784,16.867C-1.938,16.707 -2.022,16.493 -2.017,16.27C-2.012,16.048 -1.92,15.838 -1.76,15.685L19.635,-4.846C19.967,-5.167 20.497,-5.155 20.816,-4.822L24.991,-0.472C25.145,-0.312 25.229,-0.098 25.224,0.124C25.219,0.345 25.127,0.556 24.967,0.709L3.572,21.241C3.416,21.391 3.215,21.468 3.014,21.473" style="fill:rgb(186,4,26);fill-rule:nonzero;"/>
        </g>
        <g transform="matrix(1,0,0,1,76.5517,215.695)">
            <path d="M0,32.936L2.664,34.231L14.896,9.064L11.553,7.441L3.364,24.29C3.208,24.609 2.868,24.798 2.515,24.754C2.161,24.713 1.874,24.453 1.796,24.105L-3.518,0.115L-6.182,-1.18L-18.414,23.987L-15.071,25.611L-6.882,8.76C-6.727,8.44 -6.386,8.253 -6.033,8.295C-5.679,8.336 -5.392,8.598 -5.314,8.945L0,32.936ZM3.07,36.184C2.941,36.187 2.809,36.16 2.685,36.099L-1.094,34.263C-1.324,34.152 -1.49,33.942 -1.544,33.692L-6.428,11.648L-13.933,27.092C-14.135,27.507 -14.635,27.68 -15.05,27.479L-19.896,25.124C-20.096,25.028 -20.248,24.856 -20.321,24.646C-20.394,24.437 -20.379,24.207 -20.282,24.008L-7.32,-2.662C-7.118,-3.078 -6.619,-3.251 -6.203,-3.048L-2.424,-1.211C-2.194,-1.1 -2.028,-0.891 -1.974,-0.641L2.91,21.402L10.415,5.958C10.617,5.543 11.117,5.371 11.532,5.573L16.378,7.926C16.578,8.023 16.73,8.195 16.803,8.405C16.875,8.614 16.861,8.844 16.764,9.042L3.802,35.713C3.661,36.003 3.373,36.176 3.07,36.184" style="fill:rgb(186,4,26);fill-rule:nonzero;"/>
        </g>
        <g transform="matrix(1,0,0,1,119.129,247.422)">
            <path d="M0,-7.465L3.661,-7.372C5.937,-7.317 7.1,-8.302 7.15,-10.305C7.173,-11.231 6.938,-11.961 6.452,-12.478C5.898,-13.066 5.011,-13.378 3.813,-13.408L0.152,-13.501L0,-7.465ZM4.033,-5.7C3.897,-5.696 3.76,-5.697 3.62,-5.7L-0.877,-5.815C-1.339,-5.826 -1.704,-6.21 -1.692,-6.671L-1.498,-14.379C-1.492,-14.601 -1.399,-14.811 -1.238,-14.964C-1.077,-15.116 -0.854,-15.184 -0.641,-15.194L3.855,-15.079C5.515,-15.038 6.798,-14.549 7.669,-13.624C8.457,-12.788 8.855,-11.625 8.821,-10.263C8.75,-7.456 6.97,-5.774 4.033,-5.7M-0.341,6.072L3.765,6.176C6.68,6.249 8.198,4.988 8.263,2.429C8.326,-0.099 6.877,-1.417 3.957,-1.491L-0.147,-1.594L-0.341,6.072ZM4.25,7.848C4.078,7.851 3.902,7.851 3.723,7.847L-1.218,7.723C-1.44,7.717 -1.65,7.623 -1.803,7.463C-1.956,7.303 -2.039,7.088 -2.033,6.866L-1.797,-2.472C-1.785,-2.933 -1.386,-3.271 -0.94,-3.286L3.999,-3.162C7.858,-3.065 10.021,-1.012 9.934,2.471C9.849,5.821 7.787,7.758 4.25,7.848M-6.473,10.12L4.696,10.4C7.829,10.48 10.239,9.762 11.855,8.266C13.259,6.967 14.032,5.068 14.088,2.773C14.161,-0.054 12.522,-2.748 10.01,-3.932C9.738,-4.061 9.556,-4.325 9.533,-4.626C9.511,-4.926 9.652,-5.215 9.902,-5.382C11.322,-6.332 12.787,-8.381 12.839,-10.457C12.89,-12.475 12.299,-14.177 11.132,-15.378C9.779,-16.772 7.684,-17.513 4.907,-17.582L-5.768,-17.853L-6.473,10.12ZM5.625,12.072C5.308,12.08 4.984,12.08 4.654,12.072L-7.351,11.77C-7.572,11.764 -7.782,11.671 -7.935,11.511C-8.088,11.35 -8.17,11.136 -8.165,10.913L-7.418,-18.731C-7.413,-18.952 -7.319,-19.163 -7.159,-19.316C-6.997,-19.467 -6.779,-19.534 -6.562,-19.545L4.949,-19.254C8.178,-19.173 10.662,-18.261 12.332,-16.543C13.819,-15.012 14.573,-12.894 14.51,-10.415C14.455,-8.187 13.22,-6.13 11.841,-4.812C14.333,-3.149 15.838,-0.278 15.759,2.815C15.691,5.572 14.733,7.881 12.991,9.493C11.223,11.128 8.749,11.994 5.625,12.072" style="fill:rgb(186,4,26);fill-rule:nonzero;"/>
        </g>
        <g transform="matrix(1,0,0,1,167.652,244.565)">
            <path d="M0,-14.408L0.059,-6.07L5.845,-8.48L0,-14.408ZM-0.748,-3.985C-0.917,-3.98 -1.085,-4.028 -1.23,-4.123C-1.463,-4.277 -1.604,-4.536 -1.605,-4.814L-1.687,-16.454C-1.688,-16.796 -1.485,-17.102 -1.171,-17.233C-0.856,-17.362 -0.494,-17.289 -0.256,-17.047L7.904,-8.771C8.1,-8.574 8.184,-8.292 8.128,-8.02C8.073,-7.748 7.887,-7.52 7.631,-7.414L-0.448,-4.049C-0.545,-4.009 -0.646,-3.987 -0.748,-3.985M-4.949,-21.827L-5.172,8.586L-1.468,7.043L-1.494,-0.31C-1.495,-0.649 -1.292,-0.956 -0.979,-1.086L10.11,-5.704C10.421,-5.835 10.783,-5.763 11.022,-5.523L16.224,-0.323L20.108,-1.94L-1.635,-23.208L-4.949,-21.827ZM-5.996,10.68C-6.167,10.684 -6.337,10.636 -6.482,10.537C-6.715,10.381 -6.854,10.118 -6.852,9.837L-6.616,-22.393C-6.614,-22.728 -6.412,-23.029 -6.103,-23.158L-1.767,-24.963C-1.459,-25.092 -1.101,-25.023 -0.86,-24.789L22.182,-2.252C22.382,-2.055 22.47,-1.772 22.417,-1.496C22.364,-1.221 22.177,-0.991 21.918,-0.883L16.35,1.435C16.039,1.566 15.678,1.494 15.438,1.255L10.236,-3.945L0.18,0.242L0.205,7.597C0.206,7.936 0.003,8.241 -0.31,8.371L-5.695,10.615C-5.792,10.656 -5.895,10.677 -5.996,10.68" style="fill:rgb(186,4,26);fill-rule:nonzero;"/>
        </g>
        <g transform="matrix(1,0,0,1,192.805,220.982)">
            <path d="M0,-16.426L20.024,3.119L32.355,-9.515L30.19,-11.627L21.489,-2.711C21.334,-2.552 21.144,-2.461 20.901,-2.458C20.68,-2.456 20.466,-2.541 20.308,-2.697L3.044,-19.546L0,-16.426ZM20.06,5.136C19.842,5.141 19.623,5.062 19.454,4.898L-1.766,-15.814C-2.096,-16.136 -2.103,-16.665 -1.779,-16.995L2.432,-21.312C2.587,-21.471 2.813,-21.544 3.02,-21.564C3.241,-21.567 3.455,-21.481 3.613,-21.325L20.877,-4.477L29.578,-13.393C29.733,-13.552 29.955,-13.631 30.166,-13.645C30.388,-13.647 30.602,-13.562 30.76,-13.406L34.12,-10.126C34.279,-9.972 34.37,-9.76 34.373,-9.538C34.375,-9.317 34.29,-9.103 34.135,-8.945L20.636,4.885C20.478,5.047 20.27,5.131 20.06,5.136" style="fill:rgb(186,4,26);fill-rule:nonzero;"/>
        </g>
        <g transform="matrix(1,0,0,1,215.643,180.119)">
            <path d="M0,-4.732L25.686,6.394L32.705,-9.811L29.93,-11.013L24.976,0.423C24.792,0.846 24.305,1.041 23.876,0.858L1.735,-8.734L0,-4.732ZM26.141,8.329C26.021,8.331 25.9,8.309 25.787,8.26L-1.432,-3.53C-1.635,-3.619 -1.794,-3.784 -1.877,-3.99C-1.958,-4.196 -1.954,-4.426 -1.865,-4.629L0.534,-10.166C0.717,-10.588 1.206,-10.786 1.633,-10.6L23.773,-1.008L28.728,-12.445C28.911,-12.868 29.398,-13.063 29.827,-12.879L34.137,-11.013C34.34,-10.924 34.499,-10.759 34.581,-10.553C34.663,-10.347 34.659,-10.117 34.571,-9.914L26.888,7.826C26.799,8.029 26.634,8.189 26.428,8.27C26.335,8.306 26.238,8.327 26.141,8.329" style="fill:rgb(186,4,26);fill-rule:nonzero;"/>
        </g>
    </g>
</svg>
